<?xml version="1.0" standalone="no"?>
<!DOCTYPE svg PUBLIC "-//W3C//DTD SVG 20010904//EN"
 "http://www.w3.org/TR/2001/REC-SVG-20010904/DTD/svg10.dtd">
<svg version="1.0" xmlns="http://www.w3.org/2000/svg"
 width="1280.000000pt" height="640.000000pt" viewBox="0 0 1280.000000 640.000000"
 preserveAspectRatio="xMidYMid meet">
<metadata>
Created by potrace 1.15, written by Peter Selinger 2001-2017
</metadata>
<g transform="translate(0.000000,640.000000) scale(0.100000,-0.100000)"
fill="#000000" stroke="none">
<path d="M7396 5574 c-43 -7 -84 -15 -91 -18 -7 -2 -17 -25 -24 -49 -17 -70
-24 -73 -166 -81 -196 -12 -343 7 -436 56 -77 40 -229 8 -514 -108 -215 -88
-222 -90 -363 -108 -144 -19 -217 -44 -259 -88 -52 -55 -58 -76 -34 -108 11
-16 38 -66 59 -113 22 -46 49 -91 61 -99 25 -18 27 -18 391 23 299 33 360 31
618 -17 76 -14 173 -32 217 -40 63 -12 99 -13 170 -5 50 6 200 15 335 21 358
15 537 45 595 100 16 15 35 20 77 20 31 0 84 9 119 19 35 11 80 23 101 26 49
9 79 44 85 98 10 84 -35 164 -112 198 -49 23 -158 25 -233 5 l-53 -13 -21 41
c-11 22 -43 74 -71 114 -61 86 -110 114 -230 131 -94 13 -118 13 -221 -5z"/>
<path d="M2250 4796 c-25 -7 -112 -50 -195 -94 -212 -116 -293 -144 -425 -150
-114 -4 -377 20 -412 39 -12 6 -55 37 -97 68 -110 81 -184 112 -270 112 -54 0
-80 -5 -118 -25 -67 -34 -145 -122 -189 -213 -27 -55 -40 -73 -51 -69 -33 13
-181 35 -200 30 -11 -3 -25 1 -32 10 -20 24 -53 19 -102 -15 -24 -17 -68 -46
-96 -65 -33 -21 -55 -44 -59 -60 -8 -33 1 -99 28 -198 39 -147 116 -196 340
-221 l58 -6 0 -45 c0 -27 5 -46 12 -49 7 -2 108 -11 223 -19 116 -8 282 -21
370 -27 88 -7 293 -13 455 -13 265 -1 298 1 321 16 38 26 104 36 361 53 451
29 610 49 677 83 34 18 36 22 42 83 3 36 9 70 13 77 4 8 34 12 80 12 42 0 77
5 84 12 9 9 18 7 39 -10 64 -52 148 -102 180 -108 35 -7 190 30 368 87 151 48
186 83 129 128 -38 30 -96 43 -191 45 -82 1 -82 1 -63 21 27 29 49 87 66 172
25 132 14 211 -36 246 -31 22 -48 12 -60 -37 -15 -59 -65 -182 -95 -232 -18
-31 -32 -44 -48 -44 -28 0 -97 19 -97 27 0 15 44 74 67 91 33 24 27 43 -25 76
-72 45 -117 54 -243 49 l-116 -6 -69 42 c-121 73 -379 142 -524 140 -30 0 -75
-6 -100 -13z"/>
<path d="M10205 4187 c-164 -55 -370 -248 -599 -559 l-78 -107 -51 6 c-115 11
-171 23 -188 39 -15 14 -21 15 -34 4 -13 -11 -19 -9 -38 9 -28 25 -35 26 -59
4 -17 -15 -20 -15 -41 5 -28 26 -40 27 -57 7 -7 -9 -16 -12 -19 -7 -8 11 -545
-3 -634 -17 -276 -44 -558 -144 -691 -245 -52 -41 -55 -41 -70 -22 -13 17
-190 59 -337 82 -114 17 -363 15 -410 -4 -21 -9 -32 -6 -69 19 -24 16 -47 29
-53 29 -29 0 -405 -243 -414 -268 -10 -25 14 -300 32 -367 23 -86 53 -144 87
-164 23 -15 66 -20 226 -27 237 -11 485 -12 529 -2 25 6 33 4 37 -10 5 -14 18
-17 68 -17 72 -1 115 -20 219 -96 37 -27 83 -56 104 -65 l37 -15 -7 -47 c-4
-26 -8 -51 -8 -57 -3 -14 191 -77 353 -115 74 -17 180 -43 235 -57 126 -32
292 -38 670 -25 287 11 311 15 372 66 17 14 36 40 43 58 8 18 28 50 46 70 74
83 60 186 -39 296 -24 26 -28 26 104 7 331 -46 721 -66 872 -46 176 24 251 72
332 213 68 116 144 159 315 177 65 6 91 5 112 -5 31 -16 166 -181 245 -300 77
-115 94 -117 327 -41 153 49 167 62 147 135 -7 26 -36 98 -66 162 -68 145 -73
165 -47 179 36 19 46 12 101 -70 87 -131 175 -181 283 -158 118 26 343 135
523 254 127 84 154 112 170 175 21 80 19 105 -11 129 -40 31 -119 27 -277 -13
-239 -62 -366 -66 -443 -15 l-29 19 135 0 c143 0 208 10 225 33 5 7 33 17 60
20 71 10 99 34 103 87 3 35 -1 48 -25 72 -15 17 -46 38 -69 48 -45 20 -180 44
-194 35 -15 -9 -70 19 -223 114 -138 85 -150 91 -201 91 -99 0 -242 -59 -234
-97 2 -8 29 -25 61 -38 55 -22 141 -74 134 -81 -2 -2 -52 -19 -112 -37 l-109
-34 -70 39 c-136 76 -671 331 -1016 485 -157 70 -216 82 -285 60z"/>
<path d="M3940 4160 c-76 -28 -155 -83 -185 -129 -53 -79 -40 -210 28 -287
l30 -35 -54 -52 c-69 -66 -177 -147 -359 -269 l-145 -97 -6 28 c-8 39 -16 49
-50 67 -64 33 -175 29 -349 -11 -145 -34 -348 -30 -526 11 -127 29 -280 -15
-370 -107 -40 -41 -47 -52 -38 -67 44 -70 225 -113 616 -147 94 -9 177 -20
183 -25 24 -20 86 -170 110 -266 18 -71 32 -104 48 -116 31 -24 118 -47 227
-59 52 -6 112 -17 133 -23 l38 -11 -73 -32 c-40 -17 -123 -54 -184 -81 l-111
-50 -109 47 c-237 103 -430 212 -474 268 -11 14 -20 36 -20 48 0 69 -102 73
-228 9 -56 -28 -84 -49 -101 -77 -24 -36 -26 -37 -70 -32 -38 5 -58 0 -121
-29 -41 -19 -76 -39 -78 -45 -2 -5 12 -12 30 -16 l33 -8 -53 -23 c-53 -23 -63
-36 -39 -51 8 -4 16 -16 20 -25 10 -28 64 -49 157 -61 l88 -11 16 -84 c25
-124 48 -168 109 -198 63 -32 205 -87 323 -125 87 -28 127 -51 202 -115 l33
-29 -21 -105 c-63 -306 -22 -576 109 -722 79 -88 128 -106 360 -133 238 -28
485 -15 641 34 93 30 182 82 191 112 3 13 29 69 56 124 76 151 102 261 73 315
-7 13 -4 30 10 62 34 74 20 167 -40 261 -16 26 -30 61 -30 77 l0 30 43 -26
c73 -46 118 -86 144 -128 58 -92 175 -150 507 -252 159 -49 188 -55 235 -50
51 6 182 54 435 160 128 54 163 57 262 17 87 -34 267 -135 388 -218 50 -35
121 -83 157 -107 l66 -45 -14 -68 c-15 -72 -12 -156 8 -179 17 -20 100 -17
170 6 84 29 194 15 285 -35 l63 -34 31 44 c18 26 50 55 80 71 62 34 71 59 41
121 -15 30 -21 63 -21 107 0 63 -1 65 -41 100 l-42 35 26 58 c14 32 37 101 51
153 13 52 27 102 31 111 10 26 -37 72 -135 134 -50 32 -95 66 -101 77 -24 45
-213 131 -454 207 -92 29 -493 100 -577 102 -53 1 -90 19 -213 104 l-116 80 6
34 c6 34 42 116 158 365 66 141 77 198 53 293 -35 142 -139 270 -271 333 -91
43 -216 125 -455 300 -214 156 -357 266 -411 315 -64 60 -141 86 -264 91 -83
4 -109 1 -155 -16z"/>
<path d="M6905 1495 c-26 -36 -45 -68 -43 -71 3 -3 81 -25 174 -49 188 -50
499 -133 528 -142 16 -4 18 -12 12 -60 -5 -46 -3 -59 15 -84 34 -48 69 -40
115 24 21 28 41 56 44 60 4 4 76 -14 161 -42 379 -122 465 -150 481 -156 14
-5 17 3 21 52 3 32 7 69 9 82 3 22 -10 28 -272 117 -405 138 -360 116 -361
177 -2 78 -11 102 -41 105 -28 3 -67 -30 -94 -81 -10 -19 -21 -26 -32 -23 -9
3 -154 37 -322 76 -168 39 -315 73 -326 76 -18 5 -31 -7 -69 -61z"/>
<path d="M10375 1074 c-478 -33 -929 -62 -1069 -70 l-118 -7 -20 -46 c-17 -40
-18 -51 -7 -88 6 -24 15 -43 20 -43 5 0 107 7 226 15 120 8 358 23 528 35 171
11 482 31 692 45 210 14 403 25 428 25 25 0 45 4 45 8 0 18 -97 104 -144 127
-63 31 -114 31 -581 -1z"/>
</g>
</svg>
